<svg t="1709819997969" class="icon" viewBox="0 0 1024 1024" version="1.1" xmlns="http://www.w3.org/2000/svg" p-id="8035" width="200" height="200"><path d="M843.194182 861.742545a34.746182 34.746182 0 0 1-24.669091-10.216727L166.237091 199.237818A34.909091 34.909091 0 0 1 215.598545 149.876364l652.288 652.288a34.909091 34.909091 0 0 1-24.692363 59.578181z" fill="#333333" p-id="8036"></path><path d="M786.594909 554.984727a34.909091 34.909091 0 0 1-22.574545-8.285091 389.608727 389.608727 0 0 0-81.128728-53.038545 34.932364 34.932364 0 1 1 30.580364-62.836364A457.821091 457.821091 0 0 1 809.192727 493.381818a34.909091 34.909091 0 0 1-22.597818 61.509818z" fill="#333333" p-id="8037"></path><path d="M243.618909 554.984727a34.909091 34.909091 0 0 1-22.411636-61.672727 459.380364 459.380364 0 0 1 216.994909-100.328727 34.909091 34.909091 0 0 1 11.822545 68.817454 389.794909 389.794909 0 0 0-184.040727 85.061818 34.769455 34.769455 0 0 1-22.365091 8.122182z" fill="#333333" p-id="8038"></path><path d="M925.44 417.28a34.909091 34.909091 0 0 1-23.063273-8.727273 588.194909 588.194909 0 0 0-434.501818-144.570182 34.909091 34.909091 0 0 1-5.632-69.608727 659.339636 659.339636 0 0 1 486.4 161.815273 34.909091 34.909091 0 0 1-23.133091 61.090909z" fill="#333333" p-id="8039"></path><path d="M104.750545 417.28a34.909091 34.909091 0 0 1-23.13309-61.067636 649.565091 649.565091 0 0 1 192.60509-118.016 34.909091 34.909091 0 0 1 25.6 64.954181 581.166545 581.166545 0 0 0-171.985454 105.37891 34.769455 34.769455 0 0 1-23.086546 8.750545z" fill="#333333" p-id="8040"></path><path d="M650.053818 693.061818a34.909091 34.909091 0 0 1-20.200727-6.446545 197.957818 197.957818 0 0 0-229.096727 0 34.909091 34.909091 0 0 1-40.471273-56.925091 267.985455 267.985455 0 0 1 310.039273 0 34.909091 34.909091 0 0 1-20.270546 63.371636z" fill="#333333" p-id="8041"></path><path d="M515.095273 809.053091h0.395636" fill="#000333" p-id="8042"></path><path d="M515.514182 855.575273a46.545455 46.545455 0 1 1-0.372364-93.090909h0.372364a46.545455 46.545455 0 0 1 0 93.090909z" fill="#333333" p-id="8043"></path></svg>