<svg t="1709819817600" class="icon" viewBox="0 0 1024 1024" version="1.1" xmlns="http://www.w3.org/2000/svg" p-id="7013" width="200" height="200"><path d="M512 810.666667m-42.666667 0a42.666667 42.666667 0 1 0 85.333334 0 42.666667 42.666667 0 1 0-85.333334 0Z" fill="#a1bdce" p-id="7014"></path><path d="M512 597.333333a213.333333 213.333333 0 0 0-148.053333 59.733334 42.666667 42.666667 0 1 0 59.306666 61.44 131.413333 131.413333 0 0 1 177.493334 0 42.666667 42.666667 0 1 0 59.306666-61.44A213.333333 213.333333 0 0 0 512 597.333333zM512 384a384 384 0 0 0-276.053333 117.333333A42.666667 42.666667 0 0 0 298.666667 560.64a298.666667 298.666667 0 0 1 430.08 0 42.666667 42.666667 0 0 0 30.293333 12.8 42.666667 42.666667 0 0 0 30.72-72.106667A384 384 0 0 0 512 384z" fill="#a1bdce" p-id="7015"></path><path d="M926.72 338.346667a597.333333 597.333333 0 0 0-829.44 0 42.666667 42.666667 0 0 0 58.88 61.44 512 512 0 0 1 711.68 0 42.666667 42.666667 0 0 0 29.44 11.946666 42.666667 42.666667 0 0 0 30.72-13.226666 42.666667 42.666667 0 0 0-1.28-60.16z" fill="#a1bdce" p-id="7016"></path></svg>