<svg t="1709820171547" class="icon" viewBox="0 0 1024 1024" version="1.1" xmlns="http://www.w3.org/2000/svg" p-id="11632" width="200" height="200"><path d="M734.4 188.8c-11.2-8-25.6-6.4-33.6 4.8s-6.4 25.6 4.8 33.6c86.4 65.6 134.4 166.4 134.4 273.6 0 108.8-49.6 208-136 273.6-11.2 8-12.8 22.4-4.8 33.6 4.8 6.4 19.2 9.6 19.2 9.6s9.6-1.6 14.4-4.8c97.6-75.2 155.2-188.8 155.2-312 0-123.2-56-236.8-153.6-312z" fill="#2090E0" p-id="11633"></path><path d="M646.4 336c-11.2-8-25.6-6.4-33.6 4.8s-6.4 25.6 4.8 33.6c40 30.4 62.4 76.8 62.4 126.4 0 49.6-22.4 97.6-64 128-11.2 8-12.8 22.4-4.8 33.6 4.8 6.4 11.2 9.6 19.2 9.6 4.8 0 9.6-1.6 14.4-4.8 52.8-40 81.6-100.8 81.6-166.4 1.6-65.6-28.8-124.8-80-164.8zM472 188.8c-89.6 12.8-168 72-214.4 156.8H224c-48 0-88 40-88 88v104c0 12.8 11.2 24 24 24s24-11.2 24-24v-104c0-22.4 17.6-40 40-40h64l6.4-12.8c38.4-78.4 107.2-132.8 184-144 3.2 0 4.8 1.6 6.4 1.6 1.6 1.6 3.2 3.2 3.2 6.4V784c0 3.2-1.6 4.8-3.2 6.4-1.6 1.6-3.2 3.2-6.4 1.6-83.2-12.8-155.2-72-190.4-158.4l-6.4-14.4H224c-12.8 0-24 11.2-24 24s11.2 24 24 24h25.6c44.8 94.4 126.4 158.4 220.8 172.8h8c12.8 0 27.2-4.8 36.8-14.4 12.8-11.2 19.2-25.6 19.2-43.2V244.8c0-16-6.4-32-19.2-43.2-11.2-9.6-27.2-14.4-43.2-12.8z" fill="#2090E0" p-id="11634"></path></svg>